<svg enable-background="new 0 0 100 30" viewBox="0 0 100 30" xmlns="http://www.w3.org/2000/svg"><g fill="#fff"><path d="m3.4 0c.4 0 .9.3 1.4.7l10.3 9.5-5.7 5.2z" opacity=".5"/><path d="m15.1 10.2-5.7 5.3 5.7 14.5 5.6-14.5z" opacity=".4"/><path d="m0 24.4c0-.2.1-.4.3-.5l9.1-8.4 5.7 14.5c-1.1 0-2.3-.1-3.1-.4l-10.7-4c-1-.4-1.4-.8-1.3-1.2z" opacity=".6"/><path d="m.3 23.8 9.1-8.4-6-15.4c-.5 0-1 .4-1.1 1.3l-2.3 23.1c0-.2.2-.4.3-.6z" opacity=".7"/><path d="m26.7 0c-.4 0-.9.3-1.4.7l-10.3 9.5 5.7 5.2z" opacity=".5"/><path d="m30.1 24.4c0-.2-.1-.4-.3-.5l-9.1-8.4-5.6 14.5c1.1 0 2.3-.1 3.1-.4l10.7-4c.9-.4 1.3-.8 1.2-1.2z" opacity=".6"/><path d="m29.8 23.8-9.1-8.4 6-15.4c.5 0 1 .4 1.1 1.3l2.2 23c.1-.1 0-.3-.2-.5z" opacity=".7"/><path d="m42.1 10.7c1.7-.6 2.9-.9 3.7-.9 1.3 0 1.9.7 1.9 2.2v8h-2v-7.3c0-.5 0-.8-.1-1s-.2-.3-.4-.3-1.1.3-2.8.8v7.8h-2v-7.3c0-.5 0-.8-.1-1s-.2-.3-.4-.3-1.2.3-2.9.8v7.8h-2v-10h1.5l.2.7c.2-.1.6-.2 1.1-.3s.9-.2 1.1-.3c.6-.2 1.2-.3 1.6-.3.8 0 1.3.3 1.6.9z"/><path d="m58.6 16.6c0 1-.3 1.9-1 2.4-.6.7-1.5 1-2.7 1s-2.1-.3-2.7-.9-1-1.4-1-2.4v-3.5c0-1 .3-1.9 1-2.4.6-.6 1.5-.9 2.7-.9s2.1.3 2.7.9 1 1.4 1 2.4zm-5.4 0c0 .6.2 1 .5 1.3s.7.5 1.3.5c.5 0 .9-.2 1.3-.5.3-.3.5-.8.5-1.3v-3.5c0-.6-.2-1-.5-1.3s-.7-.5-1.3-.5c-.5 0-.9.2-1.3.5-.3.3-.5.8-.5 1.3z"/><path d="m69.4 13.6v3.3c0 .9-.3 1.6-.9 2.2s-1.4.9-2.3.9h-4.1v-15h2v4.6l3.3 1.2c.6.2 1.1.5 1.5 1 .3.4.5 1 .5 1.8zm-5.3 4.9h1.7c.5 0 .9-.2 1.2-.5s.5-.7.5-1.2v-2.8c0-.6-.1-1.1-.3-1.4s-.5-.5-.9-.6l-2.2-.7z"/><path d="m73 5v15h6.5v-1.4h-4.6v-13.6z"/><path d="m89.4 13.3c0-1.1-.3-1.9-.9-2.5s-1.5-.9-2.7-.9-2.1.3-2.7.9-.9 1.5-.9 2.5v3.7c0 .9.3 1.7.8 2.2s1.3.8 2.2.8h3v-1.2h-2.6c-.5 0-.8-.2-1.1-.5-.4-.3-.5-.7-.5-1.2v-.1l3.2-1c1.4-.4 2.1-1.2 2.1-2.3zm-1.7.1c0 .3-.1.7-.2 1-.1.2-.2.3-.5.4-.2.1-.4.1-.6.2s-.5.1-.9.3c-.5.1-.9.2-1.3.4h-.2v-2.8c0-.6.2-1 .5-1.4.3-.3.8-.5 1.3-.5 1.2 0 1.8.6 1.8 1.8z"/><path d="m100 13.3c0-1.1-.3-1.9-.9-2.5s-1.5-.9-2.7-.9-2.1.3-2.7.9-.9 1.5-.9 2.5v3.7c0 .9.3 1.7.8 2.2s1.3.8 2.2.8h3v-1.2h-2.6c-.5 0-.8-.2-1.1-.5s-.4-.7-.4-1.2v-.1l3.2-1c1.4-.4 2.1-1.2 2.1-2.3zm-1.7.1c0 .3-.1.7-.2 1-.1.2-.2.3-.5.4-.2.1-.4.1-.6.2s-.5.1-.9.3c-.5.1-.9.2-1.3.4l-.3.1v-2.8c0-.6.2-1 .5-1.4.3-.3.8-.5 1.3-.5 1.2 0 1.8.6 1.8 1.8v.5z"/></g></svg>